<svg width="66" height="66" viewBox="0 0 66 66" fill="none" xmlns="http://www.w3.org/2000/svg">
<circle cx="33" cy="33" r="33" fill="#0D7A5C"/>
<path d="M40.7285 18.9731V16.3103C40.7285 15.6105 40.1481 15.0302 39.4483 15.0302C38.7485 15.0302 38.1681 15.6105 38.1681 16.3103V18.8707H27.0733V16.3103C27.0733 15.6105 26.493 15.0302 25.7931 15.0302C25.0933 15.0302 24.513 15.6105 24.513 16.3103V18.9731C19.9044 19.3998 17.6683 22.1479 17.3269 26.2274C17.2928 26.7224 17.7025 27.132 18.1804 27.132H47.0611C47.5561 27.132 47.9657 26.7053 47.9145 26.2274C47.5731 22.1479 45.3371 19.3998 40.7285 18.9731Z" fill="white"/>
<path opacity="0.4" d="M47.9828 31.3959V34.3659C47.9828 35.4071 47.0611 36.2093 46.0369 36.0387C45.559 35.9704 45.064 35.9192 44.569 35.9192C42.0806 35.9237 39.6953 36.9142 37.9357 38.6738C36.1761 40.4334 35.1856 42.8187 35.1811 45.3071C35.1811 46.0923 35.4883 47.1847 35.8126 48.1747C35.9003 48.4318 35.9252 48.7062 35.8852 48.9749C35.8452 49.2437 35.7416 49.4989 35.5829 49.7194C35.4242 49.9399 35.2151 50.1193 34.9729 50.2425C34.7308 50.3657 34.4628 50.4293 34.1911 50.4278H25.7931C19.819 50.4278 17.2587 47.014 17.2587 41.8933V31.3788C17.2587 30.44 18.0268 29.6719 18.9656 29.6719H46.2759C47.2147 29.689 47.9828 30.4571 47.9828 31.3959Z" fill="white"/>
<path d="M26.6466 38.5C26.2028 38.5 25.759 38.3122 25.4347 38.005C25.1275 37.6807 24.9397 37.2369 24.9397 36.7931C24.9397 36.3493 25.1275 35.9055 25.4347 35.5812C25.8273 35.1886 26.4247 35.0008 26.988 35.1203C27.0904 35.1374 27.1928 35.1715 27.2952 35.2227C27.3976 35.2569 27.5 35.3081 27.6025 35.3764L27.8585 35.5812C28.1657 35.9055 28.3535 36.3493 28.3535 36.7931C28.3535 37.2369 28.1657 37.6807 27.8585 38.005L27.6025 38.2098C27.5 38.2781 27.3976 38.3293 27.2952 38.3634C27.1928 38.4146 27.0904 38.4488 26.988 38.4658C26.8685 38.4829 26.749 38.5 26.6466 38.5ZM32.6207 38.5C32.1769 38.5 31.7331 38.3122 31.4088 38.005C31.1016 37.6807 30.9138 37.2369 30.9138 36.7931C30.9138 36.3493 31.1016 35.9055 31.4088 35.5812C32.0575 34.9496 33.2011 34.9496 33.8326 35.5812C34.1399 35.9055 34.3276 36.3493 34.3276 36.7931C34.3276 37.2369 34.1399 37.6807 33.8326 38.005C33.5083 38.3122 33.0645 38.5 32.6207 38.5ZM26.6466 44.4724C26.2028 44.4724 25.759 44.2847 25.4347 43.9774C25.1275 43.6531 24.9397 43.2093 24.9397 42.7655C24.9397 42.3217 25.1275 41.8779 25.4347 41.5536C25.6054 41.4 25.7761 41.2805 25.998 41.1952C26.6295 40.9221 27.3806 41.0757 27.8585 41.5536C28.1657 41.8779 28.3535 42.3217 28.3535 42.7655C28.3535 43.2093 28.1657 43.6531 27.8585 43.9774C27.5342 44.2847 27.0904 44.4724 26.6466 44.4724ZM49.3995 40.4971C48.1171 39.2183 46.38 38.5003 44.569 38.5003C42.758 38.5003 41.0209 39.2183 39.7385 40.4971C38.4598 41.7795 37.7417 43.5166 37.7417 45.3276C37.7417 47.1386 38.4598 48.8757 39.7385 50.1581C41.0209 51.4368 42.758 52.1549 44.569 52.1549C46.38 52.1549 48.1171 51.4368 49.3995 50.1581C50.6783 48.8757 51.3963 47.1386 51.3963 45.3276C51.3963 43.5166 50.6783 41.7795 49.3995 40.4971ZM48.1023 46.2834C47.8804 46.5224 47.5561 46.6589 47.1976 46.6589H45.9345V47.9903C45.9345 48.3488 45.798 48.656 45.559 48.895C45.32 49.1339 45.0128 49.2705 44.6544 49.2705C43.9545 49.2705 43.3742 48.6902 43.3742 47.9903V46.6589H42.094C41.7545 46.6589 41.4289 46.5241 41.1888 46.284C40.9487 46.0439 40.8138 45.7183 40.8138 45.3788C40.8138 45.0393 40.9487 44.7136 41.1888 44.4736C41.4289 44.2335 41.7545 44.0986 42.094 44.0986H43.3742V42.8867C43.3742 42.5472 43.5091 42.2216 43.7491 41.9815C43.9892 41.7414 44.3148 41.6065 44.6544 41.6065C44.9939 41.6065 45.3195 41.7414 45.5596 41.9815C45.7997 42.2216 45.9345 42.5472 45.9345 42.8867V44.0986H47.1976C47.9145 44.0986 48.4778 44.6789 48.4778 45.3788C48.4778 45.7372 48.3413 46.0615 48.1023 46.2834Z" fill="white"/>
</svg>
